<?xml version="1.0" encoding="UTF-8" standalone="no"?>
<!-- Created with Inkscape (http://www.inkscape.org/) -->

<svg
   xmlns:dc="http://purl.org/dc/elements/1.1/"
   xmlns:cc="http://creativecommons.org/ns#"
   xmlns:rdf="http://www.w3.org/1999/02/22-rdf-syntax-ns#"
   xmlns:svg="http://www.w3.org/2000/svg"
   xmlns="http://www.w3.org/2000/svg"
   xmlns:sodipodi="http://sodipodi.sourceforge.net/DTD/sodipodi-0.dtd"
   xmlns:inkscape="http://www.inkscape.org/namespaces/inkscape"
   width="8.5in"
   height="11in"
   viewBox="0 0 765 990"
   id="svg2"
   version="1.1"
   inkscape:version="0.91 r13725"
   sodipodi:docname="logo.svg">
  <defs
     id="defs4">
    <marker
       inkscape:stockid="Arrow2Lstart"
       orient="auto"
       refY="0.0"
       refX="0.0"
       id="marker4661"
       style="overflow:visible"
       inkscape:isstock="true">
      <path
         id="path4663"
         style="fill-rule:evenodd;stroke-width:0.625;stroke-linejoin:round;stroke:#005fa3;stroke-opacity:1;fill:#005fa3;fill-opacity:1"
         d="M 8.7185878,4.0337352 L -2.2072895,0.016013256 L 8.7185884,-4.0017078 C 6.9730900,-1.6296469 6.9831476,1.6157441 8.7185878,4.0337352 z "
         transform="scale(1.1) translate(1,0)" />
    </marker>
    <marker
       inkscape:stockid="StopS"
       orient="auto"
       refY="0.0"
       refX="0.0"
       id="StopS"
       style="overflow:visible"
       inkscape:isstock="true">
      <path
         id="path4382"
         d="M 0.0,5.65 L 0.0,-5.65"
         style="fill:none;fill-opacity:0.75;fill-rule:evenodd;stroke:#005fa3;stroke-width:1pt;stroke-opacity:1"
         transform="scale(0.2)" />
    </marker>
    <marker
       inkscape:stockid="Arrow2Mstart"
       orient="auto"
       refY="0.0"
       refX="0.0"
       id="Arrow2Mstart"
       style="overflow:visible"
       inkscape:isstock="true">
      <path
         id="path4231"
         style="fill-rule:evenodd;stroke-width:0.625;stroke-linejoin:round;stroke:#005fa3;stroke-opacity:1;fill:#005fa3;fill-opacity:1"
         d="M 8.7185878,4.0337352 L -2.2072895,0.016013256 L 8.7185884,-4.0017078 C 6.9730900,-1.6296469 6.9831476,1.6157441 8.7185878,4.0337352 z "
         transform="scale(0.6) translate(0,0)" />
    </marker>
    <marker
       inkscape:stockid="Arrow2Lstart"
       orient="auto"
       refY="0.0"
       refX="0.0"
       id="Arrow2Lstart"
       style="overflow:visible"
       inkscape:isstock="true">
      <path
         id="path4225"
         style="fill-rule:evenodd;stroke-width:0.625;stroke-linejoin:round;stroke:#005fa3;stroke-opacity:1;fill:#005fa3;fill-opacity:1"
         d="M 8.7185878,4.0337352 L -2.2072895,0.016013256 L 8.7185884,-4.0017078 C 6.9730900,-1.6296469 6.9831476,1.6157441 8.7185878,4.0337352 z "
         transform="scale(1.1) translate(1,0)" />
    </marker>
    <marker
       inkscape:stockid="Arrow1Lstart"
       orient="auto"
       refY="0.0"
       refX="0.0"
       id="Arrow1Lstart"
       style="overflow:visible"
       inkscape:isstock="true">
      <path
         id="path4207"
         d="M 0.0,0.0 L 5.0,-5.0 L -12.5,0.0 L 5.0,5.0 L 0.0,0.0 z "
         style="fill-rule:evenodd;stroke:#005fa3;stroke-width:1pt;stroke-opacity:1;fill:#005fa3;fill-opacity:1"
         transform="scale(0.8) translate(12.5,0)" />
    </marker>
  </defs>
  <sodipodi:namedview
     id="base"
     pagecolor="#ffffff"
     bordercolor="#666666"
     borderopacity="1.0"
     inkscape:pageopacity="0.0"
     inkscape:pageshadow="2"
     inkscape:zoom="0.7"
     inkscape:cx="201.27152"
     inkscape:cy="421.13872"
     inkscape:document-units="px"
     inkscape:current-layer="layer1"
     showgrid="true"
     units="in"
     inkscape:window-width="1680"
     inkscape:window-height="963"
     inkscape:window-x="0"
     inkscape:window-y="26"
     inkscape:window-maximized="1"
     guidetolerance="10000"
     objecttolerance="10000">
    <inkscape:grid
       type="xygrid"
       id="grid4189" />
  </sodipodi:namedview>
  <metadata
     id="metadata7">
    <rdf:RDF>
      <cc:Work
         rdf:about="">
        <dc:format>image/svg+xml</dc:format>
        <dc:type
           rdf:resource="http://purl.org/dc/dcmitype/StillImage" />
        <dc:title></dc:title>
      </cc:Work>
    </rdf:RDF>
  </metadata>
  <g
     inkscape:label="Layer 1"
     inkscape:groupmode="layer"
     id="layer1"
     transform="translate(0,-62.362205)">
    <path
       style="fill:none;fill-opacity:1;fill-rule:evenodd;stroke:#005fa3;stroke-width:50;stroke-linecap:square;stroke-linejoin:round;stroke-miterlimit:4;stroke-dasharray:none;stroke-opacity:1"
       d="m 444.28572,292.36221 c 0,98.57142 -122.85715,55.71428 -120,180 C 321.42857,588.07649 500,552.3622 500,655.21935"
       id="path4191"
       inkscape:connector-curvature="0"
       sodipodi:nodetypes="ccc" />
    <path
       style="fill:none;fill-opacity:1;fill-rule:evenodd;stroke:#005fa3;stroke-width:50;stroke-linecap:square;stroke-linejoin:round;stroke-miterlimit:4;stroke-dasharray:none;stroke-opacity:1;marker-start:"
       d="m 445.71429,290.93364 c 0,98.57141 -138.57144,57.14284 -135.71429,181.42856 -2.85715,115.71428 141.42857,79.99999 141.42857,182.85714"
       id="path4191-3"
       inkscape:connector-curvature="0"
       sodipodi:nodetypes="ccc" />
    <path
       style="fill:none;fill-opacity:1;fill-rule:evenodd;stroke:#005fa3;stroke-width:50;stroke-linecap:square;stroke-linejoin:round;stroke-miterlimit:4;stroke-dasharray:none;stroke-opacity:1"
       d="M 445.71429,291.79077 C 445.71429,390.36218 290,348.93362 292.85715,473.21934 290,588.93362 402.85714,551.79076 402.85714,654.64791"
       id="path4191-6"
       inkscape:connector-curvature="0"
       sodipodi:nodetypes="ccc" />
    <path
       style="fill:none;fill-opacity:1;fill-rule:evenodd;stroke:#009621;stroke-width:50;stroke-linecap:square;stroke-linejoin:round;stroke-miterlimit:4;stroke-dasharray:none;stroke-opacity:1"
       d="m 272.81148,289.50506 c 0,98.57141 132.85714,57.14285 129.99999,181.42857 2.85715,115.71428 -175.71428,79.99999 -175.71428,182.85714"
       id="path4191-7"
       inkscape:connector-curvature="0"
       sodipodi:nodetypes="ccc" />
    <path
       style="fill:none;fill-opacity:1;fill-rule:evenodd;stroke:#009621;stroke-width:50;stroke-linecap:square;stroke-linejoin:round;stroke-miterlimit:4;stroke-dasharray:none;stroke-opacity:1"
       d="m 272.81148,286.64792 c 0,98.5714 147.14286,59.99998 144.28571,184.2857 2.85715,115.71428 -141.42857,79.99999 -141.42857,182.85714"
       id="path4191-3-5"
       inkscape:connector-curvature="0"
       sodipodi:nodetypes="ccc" />
    <path
       style="fill:none;fill-opacity:1;fill-rule:evenodd;stroke:#009621;stroke-width:50;stroke-linecap:square;stroke-linejoin:round;stroke-miterlimit:4;stroke-dasharray:none;stroke-opacity:1"
       d="m 271.3829,287.50506 c 0,98.5714 172.85715,59.99998 170,184.2857 2.85715,115.71428 -117.14285,78.57142 -117.14285,181.42857"
       id="path4191-6-3"
       inkscape:connector-curvature="0"
       sodipodi:nodetypes="ccc" />
    <path
       style="fill:none;fill-opacity:1;fill-rule:evenodd;stroke:#005fa3;stroke-width:50;stroke-linecap:square;stroke-linejoin:round;stroke-miterlimit:4;stroke-dasharray:none;stroke-opacity:1"
       d="m 445.14286,288.0765 c 0,98.57141 -122.85715,55.71427 -120,179.99999"
       id="path4191-5"
       inkscape:connector-curvature="0"
       sodipodi:nodetypes="cc" />
    <path
       style="fill:none;fill-opacity:1;fill-rule:evenodd;stroke:#005fa3;stroke-width:50;stroke-linecap:square;stroke-linejoin:round;stroke-miterlimit:4;stroke-dasharray:none;stroke-opacity:1"
       d="m 446.57143,286.64793 c 0,98.5714 -138.57144,57.14283 -135.71429,181.42855"
       id="path4191-3-6"
       inkscape:connector-curvature="0"
       sodipodi:nodetypes="cc" />
    <path
       style="fill:none;fill-opacity:1;fill-rule:evenodd;stroke:#005fa3;stroke-width:50;stroke-linecap:square;stroke-linejoin:round;stroke-miterlimit:4;stroke-dasharray:none;stroke-opacity:1"
       d="m 446.57143,287.50506 c 0,98.5714 -155.71429,57.14284 -152.85714,181.42856"
       id="path4191-6-2"
       inkscape:connector-curvature="0"
       sodipodi:nodetypes="cc" />
    <path
       sodipodi:type="star"
       style="opacity:1;fill:#005fa3;fill-opacity:1;stroke:#009621;stroke-width:50;stroke-linecap:round;stroke-linejoin:miter;stroke-miterlimit:4;stroke-dasharray:none;stroke-dashoffset:0;stroke-opacity:1"
       id="path4709"
       sodipodi:sides="3"
       sodipodi:cx="-460"
       sodipodi:cy="232.36221"
       sodipodi:r1="56.568539"
       sodipodi:r2="113.13708"
       sodipodi:arg1="0.78539806"
       sodipodi:arg2="1.8325956"
       inkscape:flatsided="false"
       inkscape:rounded="0.015"
       inkscape:randomized="0"
       d="m -420,272.36221 c -1.03923,1.03923 -67.8624,69.66242 -69.28202,69.28203 -1.41961,-0.38038 -24.97861,-93.22139 -25.35899,-94.64101 -0.38039,-1.41961 -26.39822,-93.60177 -25.35899,-94.641 1.03923,-1.03923 93.22139,24.97858 94.64101,25.35897 1.41961,0.38038 94.26063,23.93936 94.64101,25.35897 0.38039,1.41962 -68.24279,68.24281 -69.28202,69.28204 z"
       transform="matrix(0.43829998,0.4412321,-0.43749774,0.44204119,576.60419,341.71749)" />
    <path
       sodipodi:type="star"
       style="opacity:1;fill:#009621;fill-opacity:1;stroke:#005fa3;stroke-width:50;stroke-linecap:round;stroke-linejoin:miter;stroke-miterlimit:4;stroke-dasharray:none;stroke-dashoffset:0;stroke-opacity:1"
       id="path4709-7"
       sodipodi:sides="3"
       sodipodi:cx="-460"
       sodipodi:cy="232.36221"
       sodipodi:r1="56.568539"
       sodipodi:r2="113.13708"
       sodipodi:arg1="0.78539806"
       sodipodi:arg2="1.8325956"
       inkscape:flatsided="false"
       inkscape:rounded="0.015"
       inkscape:randomized="0"
       d="m -420,272.36221 c -1.03923,1.03923 -67.8624,69.66242 -69.28202,69.28203 -1.41961,-0.38038 -24.97861,-93.22139 -25.35899,-94.64101 -0.38039,-1.41961 -26.39822,-93.60177 -25.35899,-94.641 1.03923,-1.03923 93.22139,24.97858 94.64101,25.35897 1.41961,0.38038 94.26063,23.93936 94.64101,25.35897 0.38039,1.41962 -68.24279,68.24281 -69.28202,69.28204 z"
       transform="matrix(0.43829998,0.4412321,-0.43749774,0.44204119,745.17562,343.14606)" />
  </g>
</svg>
